<?xml version="1.0" encoding="UTF-8"?><svg width="100" id="Layer_2" xmlns="http://www.w3.org/2000/svg" xmlns:xlink="http://www.w3.org/1999/xlink" viewBox="0 0 85.51 90.28"><defs><style>.cls-1{fill:#002639;}.cls-1,.cls-2,.cls-3,.cls-4{stroke-width:0px;}.cls-2{fill:#76bc43;}.cls-3{fill:url(#radial-gradient);opacity:.27;}.cls-4{fill:url(#radial-gradient-2);}</style><radialGradient id="radial-gradient" cx="13.4" cy="-22.84" fx="13.4" fy="-22.84" r="53.14" gradientTransform="translate(-42.4 -29.22) rotate(82.72) scale(1 2.39)" gradientUnits="userSpaceOnUse"><stop offset="0" stop-color="#fff" stop-opacity="0"/><stop offset="1" stop-color="#fff"/></radialGradient><radialGradient id="radial-gradient-2" cx="40.7" cy="25.76" fx="40.7" fy="25.76" r="40.84" gradientTransform="translate(92.41 -16.91) rotate(87.85) scale(1 2.07)" gradientUnits="userSpaceOnUse"><stop offset="0" stop-color="#fff" stop-opacity="0"/><stop offset=".32" stop-color="#fff" stop-opacity=".01"/><stop offset=".57" stop-color="#fff" stop-opacity=".05"/><stop offset=".8" stop-color="#fff" stop-opacity=".11"/><stop offset="1" stop-color="#fff" stop-opacity=".2"/></radialGradient></defs><g id="Layer_1-2"><path class="cls-1" d="m0,70.39v-19.13h3.26v2.19h.07c1.48-2.08,3.87-2.15,4.74-2.19v3.6c-.54,0-1.68.24-2.52.67-1.11.61-2.05,2.02-2.05,4.67v10.19H0Z"/><path class="cls-1" d="m11.57,62.59c.87,3.6,3.77,5.08,6.12,5.08,2.59,0,4.47-1.51,5.31-3.13h3.5c-1.78,4.81-6.05,6.32-8.94,6.32-5.28,0-9.48-4.54-9.48-9.82,0-5.58,4.3-9.78,9.55-9.78s9.45,4.1,9.48,9.55c0,.61-.07,1.55-.1,1.78h-15.43Zm12.04-2.69c-.17-2.72-2.66-5.45-6.02-5.45s-5.85,2.72-6.02,5.45h12.04Z"/><path class="cls-1" d="m44.69,70.39v-2.89h-.07c-1.35,2.29-3.8,3.36-6.32,3.36-6.29,0-9.89-4.81-9.89-9.72,0-4.54,3.19-9.88,9.89-9.88,2.59,0,4.98,1.07,6.32,3.13h.07v-3.13h3.49v19.13h-3.49Zm-6.39-15.94c-4.3,0-6.39,3.73-6.39,6.66,0,3.36,2.66,6.56,6.35,6.56s6.49-2.99,6.49-6.56c0-3.97-2.86-6.66-6.46-6.66"/><rect class="cls-1" x="51.8" y="41.91" width="3.5" height="28.48"/><polygon class="cls-1" points="63.69 70.39 60.2 70.39 60.2 51.26 57.68 51.26 57.68 48.06 60.2 48.06 60.2 41.91 63.69 41.91 63.69 48.06 66.75 48.06 66.75 51.26 63.69 51.26 63.69 70.39"/><polygon class="cls-1" points="75.15 76.28 71.49 76.28 74.24 69.64 66.75 51.26 70.55 51.26 76.07 65.81 81.72 51.26 85.51 51.26 75.15 76.28"/><path class="cls-2" d="m28,29.73c1.52,0,2.66-1.19,2.66-2.77v-.03c0-1.59-1.16-2.8-2.69-2.8s-2.66,1.19-2.66,2.77v.03c0,1.59,1.16,2.8,2.69,2.8"/><path class="cls-2" d="m38.15,34.12c-1.52,0-2.67,1.19-2.67,2.77v.03c0,1.59,1.16,2.8,2.69,2.8s2.66-1.19,2.66-2.77v-.03c0-1.59-1.16-2.8-2.69-2.8"/><path class="cls-2" d="m40.39,0H0v40.27C0,44.57,3.49,48.06,7.79,48.06h40.39V7.79C48.18,3.49,44.69,0,40.39,0m-17.46,26.93c0-2.77,2.23-4.93,5.08-4.93s5.05,2.11,5.05,4.91v.03c0,2.77-2.23,4.94-5.08,4.94s-5.06-2.11-5.06-4.91v-.03Zm-2.6,14.98h-12.23v-2.3l7.69-7.82c.95-.95,1.77-2.03,1.77-3.57,0-1.8-1.19-3.73-3.33-3.73-1.51,0-3.38,1.08-3.38,4.07v.5h-2.75c0-5.75,3.79-7.08,6.02-7.08,3.75,0,6.18,3.06,6.18,6.31,0,2.59-1.37,4.15-2.72,5.52l-5.44,5.58h8.19v2.51Zm1.01,0l19.92-19.92h.21s3.23,0,3.23,0l-19.91,19.91h-3.44Zm21.9-4.99c0,2.77-2.23,4.94-5.08,4.94s-5.06-2.11-5.06-4.91v-.03c0-2.77,2.23-4.94,5.08-4.94s5.05,2.11,5.05,4.91v.03Z"/><path class="cls-3" d="m30.67,26.96c0,.25-.03.5-.09.73-1.58.27-3.2.52-4.87.75-.25-.43-.4-.94-.4-1.51v-.03c0-1.58,1.14-2.77,2.66-2.77s2.69,1.2,2.69,2.8v.03Zm-13.28,2.38c.1-.34.16-.71.16-1.11,0-1.8-1.19-3.73-3.33-3.73-1.51,0-3.38,1.08-3.38,4.07v.5h-2.75c0-5.75,3.79-7.08,6.02-7.08,3.75,0,6.18,3.06,6.18,6.31,0,.27-.02.53-.05.77,1.01-.1,2.01-.21,3-.33-.21-.55-.33-1.15-.33-1.79v-.03c0-2.77,2.23-4.93,5.08-4.93s5.05,2.11,5.05,4.91v.03c0,.1,0,.2-.02.3,1.29-.25,2.54-.52,3.76-.8l4.44-4.44h.21s3.23,0,3.23,0l-3.26,3.26c2.44-.69,4.7-1.45,6.75-2.26V7.79c0-4.3-3.49-7.79-7.79-7.79H0v29.88c1.01.02,2.02.03,3.04.03,4.95,0,9.76-.2,14.35-.57Z"/><path class="cls-4" d="m3.88,52.8h-.62v-1.54H0v10.22c1.13.33,2.29.65,3.5.96v-2.24c0-2.66.94-4.07,2.05-4.67.84-.44,1.98-.67,2.52-.67v-3.6c-.77.03-2.72.09-4.19,1.54Zm59.82-10.88h-3.5v6.15h-2.52v3.19h2.52v13.93c1.19-.15,2.35-.3,3.5-.47v-13.46h3.06v-3.19h-3.06v-6.15Zm-11.89,0h3.5v23.8c-1.15.1-2.32.2-3.5.28v-24.08Zm-28.8,22.63h3.5c-.18.49-.4.95-.63,1.37-1.21-.09-2.41-.2-3.59-.31.29-.34.54-.7.73-1.06Zm21.69-13.28h3.49v14.95c-2,.1-4.03.16-6.08.19,1.62-1.2,2.66-3.14,2.66-5.29,0-3.97-2.86-6.66-6.46-6.66-4.3,0-6.39,3.73-6.39,6.66,0,2.04.98,4,2.57,5.25-1.59-.04-3.16-.11-4.72-.19-.88-1.52-1.35-3.26-1.35-5.02,0-3.03,1.43-6.43,4.38-8.35,1.46-.95,3.29-1.54,5.51-1.54,1.81,0,3.51.53,4.84,1.54.57.44,1.08.97,1.48,1.59h.07v-3.13Zm26.44,1.54l3.7,9.75c-1.03.26-2.09.5-3.18.74l-4.27-10.49-.63-1.54h3.79l.58,1.54Zm14.38-1.54l-.64,1.54-3.21,7.76c-1.28.44-2.63.86-4.04,1.25l3.5-9.01.6-1.54h3.79Zm-58.41,9.55c-.02-3.44-1.78-6.33-4.35-8.01-1.5-.98-3.27-1.54-5.14-1.54s-3.7.56-5.2,1.54c-2.61,1.71-4.35,4.7-4.35,8.24,0,.86.11,1.7.32,2.51,1.23.25,2.5.49,3.79.71-.26-.5-.47-1.05-.62-1.67h15.43c.03-.23.1-1.18.1-1.78Zm-15.53-.91c.17-2.72,2.66-5.45,6.02-5.45s5.85,2.72,6.02,5.45h-12.04Z"/><path class="cls-1" d="m10.29,77.71c.85.38,1.5.93,1.96,1.63.46.71.69,1.54.69,2.51s-.23,1.79-.69,2.5-1.11,1.26-1.96,1.63c-.85.38-1.85.57-3,.57h-2.62v3.58H1.67v-13h5.63c1.15,0,2.15.19,3,.58Zm-1.11,5.8c.47-.39.71-.94.71-1.66s-.24-1.29-.71-1.68c-.47-.39-1.16-.58-2.06-.58h-2.45v4.51h2.45c.9,0,1.59-.2,2.06-.58Z"/><path class="cls-1" d="m18.24,80.36c.59-.25,1.27-.37,2.03-.37v2.67c-.32-.02-.54-.04-.65-.04-.83,0-1.48.23-1.95.7s-.71,1.16-.71,2.09v4.72h-2.9v-9.99h2.77v1.32c.35-.48.81-.85,1.4-1.1Z"/><path class="cls-1" d="m23.03,89.62c-.84-.44-1.49-1.05-1.96-1.83s-.71-1.67-.71-2.66.24-1.88.71-2.66c.47-.78,1.12-1.39,1.96-1.83s1.78-.66,2.83-.66,1.99.22,2.82.66,1.48,1.05,1.95,1.83c.47.78.71,1.67.71,2.66s-.24,1.88-.71,2.66c-.47.78-1.12,1.39-1.95,1.83s-1.77.66-2.82.66-2-.22-2.83-.66Zm4.66-2.47c.48-.5.71-1.17.71-2.01s-.24-1.51-.71-2.01c-.48-.5-1.09-.75-1.83-.75s-1.36.25-1.84.75c-.48.5-.72,1.17-.72,2.01s.24,1.51.72,2.01c.48.5,1.1.75,1.84.75s1.35-.25,1.83-.75Z"/></g></svg>